<svg xmlns="http://www.w3.org/2000/svg" viewBox="0 0 1920 1237.33"><defs><style>.cls-1{fill:#6a3636;}.cls-2{fill:#c36864;}.cls-3{fill:#ecd4b1;}.cls-4{fill:#995f5b;}.cls-5{fill:#fefefe;}.cls-6{fill:#c49879;}.cls-7{fill:#e78275;}.cls-8{fill:#5a2222;}.cls-9{fill:#2c2c2c;}.cls-10{fill:#a04950;}.cls-11{fill:#300808;}.cls-12{fill:#878787;}.cls-13{fill:#d1416d;}.cls-14{fill:#d16657;}.cls-15{fill:#d4695a;}.cls-16{fill:#6b131b;}.cls-17{fill:#464646;}.cls-18{fill:#310909;}.cls-19{fill:#d26657;}.cls-20{fill:#d46859;}.cls-21{fill:#5e5c5c;}.cls-22{fill:#412b2c;}.cls-23{fill:#362828;}</style></defs><g id="Camada_2" data-name="Camada 2"><g id="Camada_1-2" data-name="Camada 1"><path class="cls-1" d="M466.56,1237.12q-228.69,0-457.38.21c-7.68,0-9.18-1.5-9.18-9.18Q.36,665.73.21,103.28C2.7,97.19,8.05,96,13.76,95.13Q69,86.72,124.33,78.78c56.42-8.1,112.7-17.26,169.26-24.43C398.25,38.08,503.08,22.94,608,8.14c13.75-1.93,27.48-5.32,41.59-4.58C679.67,0,709.91,1.43,740.1,1.38q122.74-.22,245.47,0c9.08,1.17,6.78,7.2,4.92,12.44-5.35,15.07-12.2,29.53-18.38,44.25-9.78,23.28-19.15,46.74-30.24,69.45-25.44,64.19-53.53,127.28-80.31,190.91Q812.9,434,763.51,549.25,704.26,688.32,645.27,827.5q-51,120-101.86,240.19-33.37,78.88-67,157.66A25.56,25.56,0,0,1,466.56,1237.12Z"/><path class="cls-2" d="M466.56,1237.12c8.13-26.06,20.35-50.46,31-75.49q137.81-325.2,276-650.23,79.2-186.51,158.47-373c1.74-4.1,3.45-8.21,5.18-12.32,5.81-.44,11,1.9,16.13,4q179.12,73.2,358.55,145.64c12.79,5.16,25.59,10.33,38.26,15.76,5.26,2.26,11.81,3.43,13.35,10.6-.07,8.49-7.5,10.6-12.88,13.95-17.69,11-32.95,24.71-44.44,41.89C1291.28,380.2,1283,404.9,1286.85,432c5.07,35.27,29.47,54.64,59.5,68.44a215.45,215.45,0,0,0,54.52,16.29c3.69.62,7.31,1.49,10.91,2.46,10.21,2.73,11.89,6.66,6.88,16.19-1.39,2.63-3.13,5.07-4.44,7.76-8.48,17.31-5.9,34.39,7.18,48.52,21.42,23.13,49.23,32.51,79.31,37.43,8.25,1.35,17.26.17,24.5,5.92,2.82,6.9-2.39,9.27-6.86,12-32,19.29-64.5,37.57-96.82,56.25q-89.67,51.82-179.4,103.58-100,57.48-199.8,115.22Q954,972.92,865.83,1023.9q-99.9,57.64-199.81,115.26c-50.12,28.87-100.34,57.59-150.21,86.9-9.21,5.42-19.31,7.57-29.07,11.06Z"/><path class="cls-3" d="M486.74,1237.12c47.41-27.61,94.74-55.35,142.25-82.79q361.28-208.6,722.62-417.09L1525.2,637c1.07-2.95,3.36-4.32,6.28-4.86,15.13,0,30.3,1.14,45.41-.89,8.47-.17,16.95,0,25.35-1.38,12.81,1.62,16.63,5.22,17.38,17,.49,7.75.75,15.53-1.06,23.17-3,6.58-8.18,5.69-14.19,4.85-13-1.8-25.19.23-33.91,11.58-5.14,4.44-13.79,3.67-17.33,9.55-7.16,11.88-16.93,22.22-23.18,34.25-8.92,17.16.14,35.78,19.87,47.32,7.67,6.44,8.37,16.27,11.66,24.74,3.52,9.1,7.21,18,13.55,25.46,4.89,5.79,10.43,10.63,18.28,12,3.37.58,6.55,1.6,8.13,5.12,1.1,3.66.68,7.39.52,11.1a7.79,7.79,0,0,1-2.94,4.48c-16.76,3.19-26.28,13.07-29.56,30-2.16,11.16-8.17,21.39-9.07,33-7.93,14.71-13.49,30.4-19.09,46.08-5.67,5.07-10.64,3.33-15.75-1.22-10.36-9.22-19-20-27.56-30.77a63.66,63.66,0,0,0-7.61-8.12c-4.21-7.23-2.28-12.43,5.18-15.92,5.94-2.77,10-7.14,11.26-13.78,3.13-4.18,7.87-3.82,12.24-3.95,6.61-.21,9.78-3.34,9-9.83-2.27-19.61-4.8-39.16-12.19-57.72-3-7.52-8.39-10.78-16.24-11.41-13.6-1.08-26,2-36.74,10.4-7.72,6.06-14.9,7.62-23.08.87a19.88,19.88,0,0,0-12.55-4.18c-8.29-.05-12.19,4.59-9.11,12.11,6.33,15.49,13.79,30.52,19.76,46.19,1.36,3.58,4.4,5.94,7.51,8.08,6.19,2.88,11,6.92,14.2,13.29,4.57,9,10.83,16.92,20.16,21.55,5.59,2.78,6.54,8.71,9.85,13-.28,20.26,13.49,34.44,21.94,51,3.38,6.62,10.6,12.07,7.54,21.07-2.39,6.45-3.57,13.86-12.31,15.1-19.06,5.77-39.29,4.51-58.44,9.72-14.93-3.07-28.65-10-43.39-13.94-24.25-6.51-44.39-.91-62.23,16.59-15.93,15.63-30.63,32.35-45.83,48.64-22.53,9-42.18,23.2-62.63,35.85-33.38,20.66-62.15,47.19-91.08,73.44-5.69,3-12.16,1-18.71,2.75,0,4.54,4.78,7.45,4,11.93-5.91,11.24-12.89,21.51-25.16,26.82Z"/><path class="cls-4" d="M1141.47,1192a512.1,512.1,0,0,1,152.2-109.53c3.82,5.06-.64,8-2.82,11.71-6.4,10.87-18.23,17.81-22,30.55-4,5.09-9.48,8.39-14.91,11.64-18.62,11.13-36.13,23.87-53.48,36.83-9.31,7-10,18.47-2.2,27.23,4.17,4.67,8.64,3.17,13.26,1.22,24.78-10.44,49.18-21.72,73.78-32.55,19.83-8.72,39.56-17.7,59.9-25.13a94,94,0,0,1,57.22-2.74c26.35,6.83,52.49,15.18,79.77,17.61,21.92,2,44,2.85,65.86-1,13.77-2.43,26.66-7.22,37.43-16.61,2.57-2.24,5.22-4.32,9-3.73,25.31.23,50.63.27,75.93-.38,4.76-.12,7.25-2.65,2.88-7.11-2.77-2.83-5.08-5.94-2.84-9.87,2.7-4.74,7.31-4,11.93-3.55,50.47,4.87,100.86,11.22,151.73,9.64,7-.22,18.24,2.78,19.55-4.81,1-5.73-11-6.66-17.55-8.42-18-4.83-36.6-7.27-54.74-11.68-17.75-4.33-34-11.32-45.82-26.1-9.24-11.58-12.37-24.31-7-38.58,4.33-4.42,9.42-3.41,14.63-2.12a561.59,561.59,0,0,1,80.53,27.1,553.14,553.14,0,0,1,82.38,42.6c5.79,3.66,10.84,7.8,12.22,15q0,53.51,0,107c0,3.63,1,7.44-1.07,10.9H1103.31a137.06,137.06,0,0,1,22.27-27.44c4.37-5.54,9.22-2.84,14-.76,10.8,4.72,21.4,10,33.52,11.69C1162.48,1211.08,1148.21,1205.64,1141.47,1192Z"/><path class="cls-3" d="M293.82,58.52c-28,6.34-56.54,9.09-84.85,13.36C141.21,82.09,73.38,91.83,5.58,101.8a45.07,45.07,0,0,0-5.37,1.48V2.45C2.19,1,4.48,1.34,6.69,1.34c97.64.08,195.28-.2,292.91.13,3.43,1.5,5.61,4.39,5.26,7.85-1.52,15.15-2.43,30.44-7.39,45C296.87,56.08,295.1,57.18,293.82,58.52Z"/><path class="cls-5" d="M300.86,2.7.21,2.45C.7,1.76-.92.11,1.33.19c3,.09,6,0,9,0q949.52,0,1899-.21c8.4,0,10.3,1.89,10.3,10.29q-.36,608.37-.35,1216.74c0,3.28,2.58,7.6-2.1,10.09q-.23-60.22-.43-120.46c-5.7-7.84-5-16.94-5-25.86q-.09-150.43,0-300.88,0-50.88,0-101.78c0-16.39-.39-32.79.94-49.15-.46-4.82-.9-9.64-.9-14.49q-.06-175.42,0-350.83c-.19-80.64,0-161.29-.13-241.94,0-20.74-3.1-23.76-24.28-23.76q-347.45-.09-694.88,0c-60.9,0-121.79.1-182.69-.11-7.29,0-15.18,1.39-21-5.17-102.17-.07-204.34-.28-306.51,0C670.91,2.69,659.48,5.48,648,7c-15.5,2.19-31.09.43-46.6.56-94.34.74-188.69.47-283,.26C312.17,7.8,305.52,8.47,300.86,2.7Z"/><path class="cls-3" d="M988.85,2.66c3.73-.07,7.46-.2,11.2-.2H1899.9c17.26,0,17.29,0,17.28,16.88q-.06,127.11-.14,254.22c-14.46,6-27.75-.34-40.85-4.72-5.27-1.76-6.15-8.89-7.58-14.35-4.26-16.28-9.33-32.13-18.51-46.59-15-23.61-37.66-35.35-63.37-42.89-22.8-6.69-46.46-7.53-69.83-8.67-44.06-2.15-88-.37-131.31,9.79-52.52,12.33-88.49,43.43-106.53,94.22-4.25,12-11.47,17-23.22,19.13A377.39,377.39,0,0,0,1378.57,302c-5.32,2.22-11.38,7.09-17.41.72-38.2-15.78-76.33-31.71-114.6-47.3q-149.62-61-299.33-121.76c-3.94-1.61-9-2-10.06-7.6Z"/><path class="cls-2" d="M300.86,2.7q159.39-.12,318.79-.21c9.67,0,18.55,5.34,28.39,4.5-18.65,2.93-37.27,6-55.94,8.75C522.9,26,453.72,36.35,384.46,46.16c-30.19,4.28-60.17,10.17-90.64,12.36Q297.35,30.62,300.86,2.7Z"/><path class="cls-4" d="M1361.16,302.76c33.07-14,67.15-24.67,102.58-30.71,6.37-1.09,7.1-5.78,8.71-10.18,11.33-31.18,28.06-58.51,56.18-77.43,23.67-15.93,50.29-24.28,78.24-28.29a572.23,572.23,0,0,1,166.22.27c56.64,8.41,89.5,42.46,101.07,97.66,1.74,8.3,4.89,12.07,13.44,13.11,9.92,1.21,19.63,4.17,29.44,6.37q.06,179.52.11,359.06c0,1.86-.28,3.71-.43,5.57-7.58,12.23-20.8,12.53-32.64,14.19-50.07,7-98.87-1.78-147.37-13.26a26.4,26.4,0,0,1-7-3.34c-5.9-2.45-8.18-7.07-8.25-13.27a453.11,453.11,0,0,1,4.69-69c3.15-22.14,19.64-34.24,35.42-46.9,8.65-6.94,17.79-13.31,25.74-21.5-4-3.47-7.55-1.43-10.91-.55-19.14,5.05-38.15,10.43-56.6,17.75-17,6.76-22.76,2.8-23.1-15.48-.48-25.74-.82-51.5,2.5-77.1,1.78-13.73,5.1-27.05,12.68-39.07,3.88-6.15,7.78-12.6,7.61-22.77-11.48,6.73-17.16,16.43-23.59,25.07-4.43,6-8.56,12.21-12.89,18.28-7.72,10.84-12.93,11.9-24.56,5.48-4.21-2.32-7.73-5.77-13.51-8.1,1.62,6,4.87,9.86,8.08,13.65,24.28,28.62,22.43,60.18,10.2,92.69-4.27,11.36-12.1,12.71-20.33,3.38-16-18.19-31.82-36.61-45.45-56.72-5.85-8.62-12.07-17.05-15.52-24.36,10.59,26.93,26.28,54.1,39.31,82.54a58,58,0,0,1,2.19,6.35c1.22,3.79,1.5,7.51-2.07,10.15s-7,1.61-10.44-.5c-8.57-5.31-17.14-10.62-25.92-15.57-2.48-1.39-4.78-3.56-8.92-2.91,1.84,5.8,6.54,8.26,10.27,11.63,10.77,9.7,22.56,18.58,28,32.83,5.2,13.56,3.44,28,5.17,42,1.54,12.52.61,25.35.26,38s-1.21,13.34-14.47,13.7a9.26,9.26,0,0,0-4.35.73l-24.44.76a274.47,274.47,0,0,1-45.06,0l-6.25.08c-34.21-2.41-67.25-8.13-95.48-30-29-22.47-33.74-49.58-15.39-74.62,3.84-5.25,2.84-7.18-3.85-8.24-22.14-3.51-43.92-8.61-64.53-17.75-59.37-26.35-81.45-73-54.07-134.54,11.28-25.36,30.68-43.63,53.29-58.86C1350.42,309.46,1355.82,306.16,1361.16,302.76Z"/><path class="cls-6" d="M1601,636.2c11.14-1.07,13.87-7.15,13.52-18-.64-20.13-.86-40.28-2.16-60.4a45.41,45.41,0,0,0-14.08-30.73c-10.1-9.94-22.09-17.94-30.63-29.47-1.89-2.56-5.51-5.32-3.27-8.79,2.64-4.09,6.77-1.7,10.09-.36,12.21,4.92,22.75,12.79,34,19.36,3.44,2,6.24,5.38,12.83,5.46-9.45-19.49-18.38-38.11-27.49-56.65-9-18.25-18.07-36.43-21.27-57.55,6.13,1.53,7.51,6.34,9.73,9.89a631.94,631.94,0,0,0,63.1,84.11c2.42,2.73,4.36,7.4,8.26,6.81,4.77-.73,4.4-6.32,5.69-10a143.48,143.48,0,0,0,6.77-28.24c3-21.9-4.61-40.31-18-57-4.44-5.55-8.63-11.28-11.41-17.89-1.46-3.45-3.61-7.67-.26-10.39,3.93-3.18,6.8,1.14,9.26,3.62,5.32,5.37,11.62,9.28,18,13.27,6,3.79,9.89,2.68,13.84-3.24q10.86-16.27,22.91-31.75c4.56-5.86,10-11.05,15.39-16.22,2.59-2.49,5.75-5.86,9.73-3.78,4.44,2.32,2.21,6.65,1.28,10.06-1.46,5.38-2.4,11.32-5.4,15.8-14.1,21.08-17.7,45-18.86,69.32-.91,19-.26,38.07-.3,57.11,0,9.12,3.27,11.91,12.43,8a329.87,329.87,0,0,1,73.89-22.06c4.23-.72,10-3.61,12.18,1.15s-4,7.37-7.2,10.07c-12.5,10.65-24.73,21.77-38.19,31.09-16.15,11.2-23.87,26.63-25.57,45.15-1.81,19.66-2.16,39.47-2.86,59.22-.1,2.83,1.37,5.71,2.11,8.56,3.34,7.38,3.27,15.26,3,23.06-2.26,68.51-3.78,137.08-1.76,205.56,1.55,52.09.45,104.25,3.92,156.29.46,6.92,1.13,14.25-3.12,20.63-.41,29.52,10.25,44.71,38,54.47,18.74,6.58,38.43,9,57.7,13.18,12.41,2.72,24.65,6,36,11.9,3.16,1.65,7.94,2.92,7.07,7.46-.81,4.21-5.54,4.53-9.13,5.07-27.44,4.13-55,3.31-82.53,1.29-34.8-2.56-69.54-6-105.74-9.11,3.87,5.26,9.33,6.14,13.19,9.17,2.23,1.76,6.19,2.49,5.67,6.11s-4.29,3.38-7.12,4.08c-11.75,2.91-23.74,2.43-35.63,2-18.14-.68-36.45,2.5-54.42-2.24-2.77-4.16-.77-8,1.17-11.54,13.88-25.31,17.77-52.54,16.17-80.95-.35-6.28-.69-12.66,1-18.87A272.37,272.37,0,0,1,1637.32,970c3-5.25,3.08-10.52,3.27-16,5.68-14.12,12.05-27.93,14.13-43.33,2.71-20.12-3.4-32.93-21.21-42.17-4.22-2.18-9.24-3.37-11.46-8.37-1.94-7.59-2.66-15.12.94-22.46,6.93-3.93,13.06-8.24,13.86-17.41.49-5.58,5-8.29,10.24-8.61,8.6-.54,8.8-5.19,4.4-10.13-5.93-6.69-4.92-12.85-2.42-20.56,8.27-25.5,4.82-49.84-9.08-72.78-1.79-3-3.64-5.59-6.83-7.08-6.35-9.66-17.17-16.41-19.05-29,0-7.29-.54-14.65.2-21.87C1615.38,639.76,1611.49,635,1601,636.2Z"/><path class="cls-7" d="M1625.11,860.42c30.58,6.48,42.41,28.72,32.81,63.12-3,10.65-7.73,20.8-11.68,31.17-11.88,24.32-30.49,42.92-51.06,59.83-1.46,1.2-2.44,2.82-3.74,4.17-3.5,6-9.22,9.69-14.6,13.66-16.61,12.27-32,10.76-46.71-4.44-6-5.47-13.47-9.9-14.14-19.29-9.58-16.95-18.89-34.06-28.86-50.78-3.78-6.33-5-12-.75-18.23-.47-5.74-.23-11,7.36-11.73,9.2,3.72,13,12.93,19.39,19.43,5.49,5.54,10.23,11.81,15.66,17.41,2.36,2.43,4.82,6.28,9.38,3.43,2-.08,4-.65,4.55-2.55,4-14.71,10.07-28.9,11.51-44.27,4.72-15.3,9.1-30.71,14.26-45.85,4.36-12.8,11.69-16.85,28-17,6.84,4,13.69,6.83,21.34,1.64A6.29,6.29,0,0,1,1625.11,860.42Z"/><path class="cls-8" d="M1444.15,894.64c-5.77.75-8.62-1.95-10.46-7.38a318.92,318.92,0,0,0-22.75-52c-4.31-7.83-1.09-11.84,5.1-15,10.29-5.3,19.9-2.2,27.88,4.69,4.66,4,7.24,4,11.88.29,13.29-10.54,28.37-16,45.69-14.06,10,1.14,17,4.92,20.27,15.68,7.64,25.08,12.56,50.44,12,77.79-8.37-2.7-16.21-6.34-24.68-3.41-4.51,7.59-9.9,6.54-15.56,1.49-6.39-5.68-12-12.18-18.39-17.84-8.24-7.31-15.61-5.86-19.86,4.36C1452.93,894.93,1449.69,896.56,1444.15,894.64Z"/><path class="cls-9" d="M1264.62,1120.61l29.05-38.12c14.84-16.66,29.9-33.09,45.65-48.93,19.86-19.95,42.76-25.8,69.41-17.2,12.72,4.1,25.33,8.52,38,12.8,18,.67,34.82,5.68,51.19,12.73,5.59,1.35,10.43,3.64,12.26,9.72-2.78,9.2-10.74,7.41-16.76,6.58-17.15-2.37-34.35-.64-51.45-1.77-29-1.92-55.32,6.88-80.88,18.92-28.41,13.39-55,30-82.13,45.82C1274.72,1123.63,1269,1130,1264.62,1120.61Z"/><path class="cls-10" d="M1625.11,860.42c-3.64,2.53-7,5.61-11,7.49-10.33,4.94-15.5,2-17.61-9.45l2-2.28c2.86-3.73,5.16-7.45-.11-11.1-14.33,1.9-22.88-6.84-30.45-16.89-8.2-10.88-11.81-23.9-15.82-36.65-1.23-3.92-2.19-7.85-4.82-11.11a34.84,34.84,0,0,1-6.31-12.92c-1.54-6.46-.09-12.23,6.58-14.75a115.8,115.8,0,0,0,43.12-28.84c5.71-5.93,10.42-4.34,12.94,3.68,3,9.57,5.82,19.16,12.2,27.18,1.61,1.48,4.5,2.69,4.37,4.71-.81,12.85,6.82,22,13.14,31.84-4,15.35-2.87,31.31-5.76,46.78C1623.58,845.2,1626.3,853,1625.11,860.42Z"/><path class="cls-11" d="M1613.17,758.67c-9.8-9.16-13.48-21.07-15.16-36.34-13.26,17.51-28.94,28.93-48.2,35-4.38,1.37-4.43,4.16-3.79,7.82.89,5,2.92,10,1.26,15.3-22.49-10.33-32.53-31.74-22.8-52.68,5.91-12.72,17.22-22.31,23.49-35.34,3.35-7,12.52-7,19.63-8.94,22.15-13.71,44.61,3.93,55,23.11,4.16,7.73,7.12,16.54,4.3,25.85-2.13,6.18-6.15,11.66-5.84,18.76C1621.21,756,1617.36,757.8,1613.17,758.67Z"/><path class="cls-12" d="M1623.56,732.9c-4.42-36.22-18.6-48.73-56-49.43,12.58-15.7,28.37-18.36,46.52-11.44,9.66,6.12,15.06,16.16,22.52,24.31,4,15,2.94,31,11.82,45.28,7.9,12.66,5.08,27.09.2,40.69-1.84,5.11-4.79,9.2-10.75,9.94-10.54-3.44-15-12.11-16.08-21.83-1.13-10.64-2.75-21.72,2.23-32.16A5.9,5.9,0,0,0,1623.56,732.9Z"/><path class="cls-10" d="M1444.15,894.64c4.94-.57,5.39-3.8,5.37-8,0-5.3,3-8,8-10.67,10-5.43,16.24-2.69,22.48,5.66,4.43,5.94,10.38,10.73,15.3,16.34,4,4.57,8.35,5.88,13.83,3.23-1.14,8.8-1.42,17.5-14.21,18-6.25.27-1.09,5.61-1.18,8.65-1.13,4.74-3.87,8.46-7.35,11.73a45.75,45.75,0,0,0-13.85-12.23c-9.12-5.16-15.17-14.34-19.34-24C1451.24,898.83,1448.57,896.09,1444.15,894.64Z"/><path class="cls-13" d="M1141.47,1192c12.24.47,15.92,14.12,26.57,17.26,3.47,1,6.56,3.49,9.67,5.53s10.7.21,7.33,7.82c-2.67,6-7.13,7.88-13.7,5-13-5.67-26.16-10.9-39.3-16.21a54.16,54.16,0,0,0-6.47-1.77c-4-3.29-8.1-6.47-12-9.92-1.62-1.44-3.34-3.4-2.38-5.82s3.53-2.51,5.71-2.48C1125.11,1191.56,1133.29,1191.82,1141.47,1192Z"/><path class="cls-14" d="M1509,1051.37l-13.24-5c-4.64-10.09-2.22-15.35,11.12-24.17l9.1-13.52a78.76,78.76,0,0,1,15.6,15.4C1530.78,1037,1519.52,1050.59,1509,1051.37Z"/><path class="cls-4" d="M1506.89,1022.16c-2.16,8.77-10.45,14.72-11.12,24.17l-49.06-17.18C1466.94,1028.27,1486.52,1021.82,1506.89,1022.16Z"/><path class="cls-15" d="M1554.23,921.35c1.54,16.95-5,32.58-8.75,48.56-1.59,6.83-5.7,3-7.31-1.74Q1546.21,944.75,1554.23,921.35Z"/><path class="cls-2" d="M1531.45,637h45.06A143.38,143.38,0,0,1,1531.45,637Z"/><path class="cls-16" d="M1598.38,845.08l12.48-3.56c-3.92,6.32-7,11.35-12.37,14.66Z"/><path class="cls-3" d="M1731.08,1037.28c-4.33-19.83-3.49-40.13-3.9-60.11-1.72-83.6-4.25-167.23-2.24-250.85.68-28.36,1.58-56.7,1.73-85.07,0-3.33-.25-6.79,2.36-9.51,32.92,7.75,66,14.35,99.86,16.66,30,2,59.36.11,87.83-10.21.16,3.72.44,7.44.44,11.16q0,228.07,0,456.15c0,3.72-.26,7.44-.4,11.16-48.5-30.18-99.53-54.88-154.46-71.08C1752,1042.54,1741.49,1040,1731.08,1037.28Z"/><path class="cls-17" d="M1509,1051.37l22.58-27.33c3,2.14,6,4.44,9.14,6.39,12.43,7.69,20.8,7.16,32.64-2.11,5.55-4.33,10.92-8.88,16.37-13.33,12.66-1.85,22.29,3,26.38,13.39,2.07,23.79,2.6,47.46-3.18,70.95a124,124,0,0,1-18.81,41.32c-18,18.13-40.56,23.61-65.16,25-40.55,2.34-79.69-5-118-16.72-27.26-8.36-52.73-5.77-78.35,5.86-40.8,18.5-82.09,35.91-122.92,54.36-8.85,4-13.23,4.48-17.22-6.12-10.26-27.23-12-21.71,10.31-38.39,16.45-12.32,33.5-23.76,51-34.6a40.55,40.55,0,0,0,10.91-9.46c5.05,1.32,8.42-2.19,12.16-4.39,34.32-20.19,67.87-41.82,105.55-55.68,15.85-5.83,31.84-10.14,49-9.53,21.55.77,43.19-1.42,64.68,2.15C1500.31,1053.88,1505,1054,1509,1051.37Z"/><path class="cls-18" d="M1637.16,789.28c13.82-10,14-37.49,3.65-51-5-6.59-6.74-12.61-5.22-20.24,1.43-7.18-2.43-14.63,1-21.73,23.11,24.38,26.25,53.07,17.36,83.92-2.19,7.58-3.89,13.77,3.63,19.3,3,2.18,4.06,6,4.13,10,.17,8.52-3.68,11.89-11.63,8.46-6.83-2.95-7.88-1-8.58,5.46-.85,7.86-1.43,17.32-14,14.64-8.46-16.38-3.63-32,2.86-47.42C1632.44,789.07,1635.15,790.85,1637.16,789.28Z"/><path class="cls-19" d="M1616.12,1028.38,1589.74,1015l56.5-60.28C1639,980.42,1627.31,1004.29,1616.12,1028.38Z"/><path class="cls-20" d="M1594.66,924.43c-9.31,19-19.42,37.4-31.54,54.69-3.56,5.07-7.8,4.34-11.35,1.09-5.44-5,1.56-6,3.57-7.71C1571.19,958.69,1581.61,940.59,1594.66,924.43Z"/><path class="cls-21" d="M1637.16,789.28l-6.72,1.42c-11.89-7.38-11.92-21.15-17.28-32,4.83-8,2.24-19.06,10.4-25.76,6.43.07,4.52,4.07,3.74,7.72-2.66,12.49-2.91,25,.41,37.4C1629.08,783.15,1631.14,787.94,1637.16,789.28Z"/><path class="cls-22" d="M1582.73,774c3,.6,3.45,3.29,3.86,5.83.32,2-.57,4.17-2.69,4.07-3.64-.16-4.8-3.09-4.84-6.3C1579,775.52,1580.18,774.11,1582.73,774Z"/><path class="cls-23" d="M1564.36,790.15a6,6,0,0,1-3.31-6.3c.2-2,1.19-3.63,3.53-2.6,2.83,1.24,2.93,3.86,2.67,6.48A2.46,2.46,0,0,1,1564.36,790.15Z"/></g></g></svg>